Coordinates
version=1
nRows=14
nColumns=63
inDegrees=yes

Units are S.I. units (second, meters, Newtons, ...)
If the header above contains a line with 'inDegrees', this indicates whether rotational values are in degrees (yes) or radians (no).

endheader
time	pelvis_tilt	pelvis_list	pelvis_rotation	pelvis_tx	pelvis_ty	pelvis_tz	hip_flexion_r	hip_adduction_r	hip_rotation_r	knee_angle_r	knee_angle_r_beta	ankle_angle_r	subtalar_angle_r	mtp_angle_r	hip_flexion_l	hip_adduction_l	hip_rotation_l	knee_angle_l	knee_angle_l_beta	ankle_angle_l	subtalar_angle_l	mtp_angle_l	L5_S1_Flex_Ext	L5_S1_Lat_Bending	L5_S1_axial_rotation	L4_L5_Flex_Ext	L4_L5_Lat_Bending	L4_L5_axial_rotation	L3_L4_Flex_Ext	L3_L4_Lat_Bending	L3_L4_axial_rotation	L2_L3_Flex_Ext	L2_L3_Lat_Bending	L2_L3_axial_rotation	L1_L2_Flex_Ext	L1_L2_Lat_Bending	L1_L2_axial_rotation	L1_T12_Flex_Ext	L1_T12_Lat_Bending	L1_T12_axial_rotation	Abs_r3	Abs_r2	Abs_r1	Abs_t1	Abs_t2	neck_flexion	neck_bending	neck_rotation	arm_flex_r	arm_add_r	arm_rot_r	elbow_flex_r	pro_sup_r	wrist_flex_r	wrist_dev_r	arm_flex_l	arm_add_l	arm_rot_l	elbow_flex_l	pro_sup_l	wrist_flex_l	wrist_dev_l
2.615385	-0.262149	1.697170	88.019254	0.235611	0.894834	0.656769	-2.544161	-0.361512	1.799324	5.175248	0.090325	26.856510	8.174662	0.000000	-3.085209	-0.233389	-2.388124	4.489305	0.078353	24.040707	-4.283280	0.000000	-0.139101	0.149348	1.548784	-0.258324	0.198633	1.645583	-0.228529	0.363125	1.645583	-0.158978	0.363125	1.355186	-0.129169	0.304551	1.258387	-0.079482	0.231340	1.161588	-0.993584	1.689457	8.613873	0.000000	0.000000	18.647054	-4.588191	-15.804462	-3.562740	-10.772743	14.254232	30.430389	86.993323	-4.033494	13.054097	5.338021	-10.834488	124.635205	8.237183	16.630849	-8.409016	-7.476346
2.634615	-0.249993	1.681214	88.399977	0.234903	0.894908	0.656912	-2.564434	-0.342746	1.321379	5.096404	0.088949	26.887774	8.431784	0.000000	-3.004630	-0.241481	-1.983896	4.509877	0.078712	23.978052	-4.399556	0.000000	-0.123952	0.139733	1.560479	-0.230191	0.185845	1.658009	-0.203641	0.339746	1.658009	-0.141665	0.339746	1.365420	-0.115102	0.284943	1.267890	-0.070826	0.216446	1.170360	-0.885376	1.580685	8.678918	0.000000	0.000000	18.391330	-4.839925	-16.334600	-3.940299	-10.667619	13.583934	30.576998	86.981803	-3.990054	12.628461	5.117474	-10.703163	128.004048	7.543641	12.740262	-7.908654	-8.515078
2.653846	-0.203698	1.665988	88.774912	0.234128	0.895084	0.657240	-2.558931	-0.293339	0.844755	5.041033	0.087983	26.885944	8.671377	0.000000	-2.904891	-0.281393	-1.580119	4.567757	0.079722	23.939069	-4.515358	0.000000	-0.107807	0.134557	1.574055	-0.200209	0.178961	1.672433	-0.177117	0.327163	1.672433	-0.123213	0.327163	1.377298	-0.100110	0.274390	1.278919	-0.061601	0.208429	1.180541	-0.770056	1.522141	8.754419	0.000000	0.000000	18.020952	-5.054145	-16.776079	-4.253172	-10.628502	12.555817	30.700786	86.844786	-4.014932	11.968388	4.815466	-10.641546	129.397278	7.284152	10.249311	-7.453449	-9.271666
2.673077	-0.127685	1.650503	89.133959	0.233304	0.895337	0.657797	-2.523908	-0.214208	0.453561	5.008367	0.087412	26.835233	8.782323	0.000000	-2.778994	-0.349124	-1.210415	4.670251	0.081511	23.927662	-4.611316	0.000000	-0.091515	0.133417	1.590419	-0.169952	0.177444	1.689820	-0.150350	0.324389	1.689820	-0.104592	0.324389	1.391617	-0.084981	0.272063	1.292216	-0.052292	0.206662	1.192814	-0.653682	1.509234	8.845434	0.000000	0.000000	17.543252	-5.230392	-17.143512	-4.482031	-10.641452	10.889038	30.872480	86.766725	-4.004362	11.218415	4.532312	-10.622045	128.772945	7.294290	9.515232	-7.101107	-9.791993
2.692308	-0.025614	1.632340	89.480972	0.232435	0.895620	0.658617	-2.454183	-0.111476	0.096039	4.999068	0.087250	26.761649	8.840150	0.000000	-2.621040	-0.436384	-0.804399	4.815901	0.084053	23.917160	-4.782952	0.000000	-0.075444	0.135958	1.604973	-0.140108	0.180825	1.705284	-0.123947	0.330569	1.705284	-0.086225	0.330569	1.404351	-0.070058	0.277246	1.304041	-0.043109	0.210599	1.203730	-0.538891	1.537988	8.926379	0.000000	0.000000	16.983006	-5.346986	-17.403479	-4.602049	-10.736303	8.590391	31.080120	86.703484	-4.053581	10.389573	4.326750	-10.618411	125.708592	7.406787	11.039418	-6.871126	-10.204497
2.711538	0.095917	1.614865	89.814900	0.231554	0.895894	0.659682	-2.360451	0.015987	-0.104244	5.000786	0.087280	26.654506	8.688632	0.000000	-2.431860	-0.544885	-0.460390	5.011493	0.087467	23.942645	-4.888392	0.000000	-0.060950	0.140487	1.611469	-0.113190	0.186847	1.712186	-0.100134	0.341579	1.712186	-0.069660	0.341579	1.410036	-0.056598	0.286480	1.309319	-0.034827	0.217614	1.208602	-0.435358	1.589213	8.962508	0.000000	0.000000	16.365444	-5.402216	-17.596458	-4.582613	-10.928071	5.773039	31.285248	86.611791	-4.221760	9.514643	4.143348	-10.521930	120.448616	7.397157	14.599246	-6.521512	-10.557068
2.730769	0.211928	1.584906	90.100032	0.230739	0.896164	0.660946	-2.228767	0.138008	-0.196101	5.014689	0.087523	26.541435	8.463854	0.000000	-2.208823	-0.647988	-0.187015	5.237738	0.091416	23.978308	-4.966726	0.000000	-0.046264	0.143590	1.624877	-0.085917	0.190975	1.726432	-0.076007	0.349125	1.726432	-0.052875	0.349125	1.421767	-0.042961	0.292809	1.320212	-0.026435	0.222421	1.218658	-0.330461	1.624318	9.037077	0.000000	0.000000	15.688616	-5.429593	-17.815421	-4.485220	-11.176509	2.308198	31.517996	86.465285	-4.492531	8.587967	4.403957	-10.302460	119.279451	6.906897	14.257584	-6.041598	-11.220106
2.750000	0.316841	1.540740	90.325239	0.230096	0.896420	0.662307	-2.069716	0.255951	-0.099065	5.032578	0.087835	26.424941	8.085869	0.000000	-1.962688	-0.742540	0.024239	5.479198	0.095630	24.030356	-5.032669	0.000000	-0.031733	0.141881	1.639259	-0.058931	0.188701	1.741712	-0.052134	0.344969	1.741712	-0.036267	0.344969	1.434351	-0.029467	0.289323	1.331898	-0.018132	0.219773	1.229444	-0.226664	1.604984	9.117064	0.000000	0.000000	15.000777	-5.388589	-18.090206	-4.326316	-11.461393	-1.626920	31.866337	86.139326	-4.958159	7.719723	4.675428	-10.104070	118.123545	6.376676	13.989204	-5.494246	-11.755095
2.769231	0.346889	1.456643	90.549024	0.229633	0.896698	0.663735	-1.861189	0.309018	0.081885	5.055119	0.088228	26.306992	7.605238	0.000000	-1.656942	-0.778302	0.134891	5.734382	0.100084	24.082506	-4.941546	0.000000	-0.014039	0.125385	1.659744	-0.026072	0.166761	1.763478	-0.023065	0.304860	1.763478	-0.016046	0.304860	1.452276	-0.013037	0.255684	1.348542	-0.008022	0.194221	1.244808	-0.100281	1.418375	9.230999	0.000000	0.000000	14.331965	-5.218024	-18.554197	-4.163298	-11.672147	-6.119997	32.491598	85.801630	-5.547355	7.098558	5.054805	-9.971069	117.538678	5.876614	13.745002	-4.968060	-11.837091
2.788462	0.308541	1.334728	90.767092	0.229377	0.897038	0.665169	-1.611460	0.297119	0.212187	5.084609	0.088743	26.197572	7.205592	0.000000	-1.308032	-0.754914	0.280477	5.980248	0.104375	24.080793	-4.895658	0.000000	0.006708	0.094523	1.698651	0.012458	0.125716	1.804817	0.011021	0.229824	1.804817	0.007667	0.229824	1.486320	0.006229	0.192752	1.380154	0.003833	0.146416	1.273988	0.047917	1.069266	9.447388	0.000000	0.000000	13.712743	-4.911386	-19.246398	-4.072673	-11.749539	-11.214465	33.622451	85.476378	-6.269688	6.851422	5.814753	-9.840746	119.412320	5.643548	12.282486	-4.574283	-11.671084
2.807692	0.208241	1.177561	90.952652	0.229335	0.897480	0.666547	-1.330113	0.227859	0.396606	5.113966	0.089256	26.056797	6.771041	0.000000	-0.928438	-0.683058	0.265927	6.213640	0.108448	24.059553	-4.655653	0.000000	0.030422	0.050271	1.758565	0.056496	0.066861	1.868475	0.049979	0.122229	1.868475	0.034769	0.122229	1.538744	0.028249	0.102513	1.428834	0.017383	0.077870	1.318923	0.217298	0.568678	9.780609	0.000000	0.000000	13.173215	-4.445286	-20.168323	-4.071404	-11.657462	-16.768250	35.447885	85.149161	-7.070678	7.097406	6.850892	-9.702232	122.942856	5.582753	10.315270	-4.287356	-11.216416
2.826923	0.051080	0.993151	91.095305	0.229479	0.898054	0.667843	-1.022017	0.100080	0.584487	5.159866	0.090057	25.880595	6.366452	0.000000	-0.521551	-0.567206	0.035038	6.459573	0.112741	24.019537	-4.179907	0.000000	0.056032	-0.005378	1.833590	0.104056	-0.007153	1.948190	0.092054	-0.013076	1.948190	0.064038	-0.013076	1.604392	0.052031	-0.010967	1.489792	0.032016	-0.008330	1.375193	0.400228	-0.060835	10.197880	0.000000	0.000000	12.731360	-3.798396	-21.241170	-4.148367	-11.381165	-22.555348	38.115696	84.808467	-7.896087	7.863808	8.060045	-9.554487	127.786302	5.588250	7.869203	-4.170992	-10.520115
2.846154	-0.117599	0.793599	91.229774	0.229668	0.898750	0.668944	-0.727086	-0.042854	0.722838	5.193237	0.090639	25.649187	6.009967	0.000000	-0.136850	-0.442009	-0.192734	6.653629	0.116128	23.878444	-3.709975	0.000000	0.083971	-0.064865	1.901759	0.155942	-0.086270	2.020619	0.137956	-0.157712	2.020619	0.095970	-0.157712	1.664039	0.077975	-0.132272	1.545179	0.047981	-0.100475	1.426319	0.599795	-0.733762	10.577011	0.000000	0.000000	12.369200	-3.025419	-22.367585	-4.336794	-10.945362	-28.415278	41.791658	84.379091	-8.636319	9.147932	8.976286	-9.454049	129.823355	5.352715	8.274744	-4.145099	-9.692974
2.865385	-0.301606	0.597732	91.359113	0.229879	0.899557	0.669879	-0.458945	-0.207479	0.768937	5.225336	0.091199	25.376856	5.750457	0.000000	0.212023	-0.304673	-0.455140	6.810755	0.118870	23.643661	-3.207804	0.000000	0.111159	-0.126119	1.964876	0.206434	-0.167738	2.087680	0.182623	-0.306646	2.087680	0.127044	-0.306646	1.719266	0.103222	-0.257182	1.596461	0.063516	-0.195358	1.473657	0.793998	-1.426684	10.928048	0.000000	0.000000	12.056974	-2.234281	-23.542103	-4.645667	-10.372091	-34.117149	46.539734	83.840683	-9.268450	10.994314	9.870136	-9.359611	131.603866	5.140033	9.047781	-4.396590	-9.030979
